<?xml version="1.0" encoding="UTF-8" standalone="no"?>
<!DOCTYPE svg PUBLIC "-//W3C//DTD SVG 1.1//EN" "http://www.w3.org/Graphics/SVG/1.1/DTD/svg11.dtd">
<svg width="100%" height="100%" viewBox="0 0 550 550" version="1.1" xmlns="http://www.w3.org/2000/svg" xmlns:xlink="http://www.w3.org/1999/xlink" xml:space="preserve" xmlns:serif="http://www.serif.com/" style="fill-rule:evenodd;clip-rule:evenodd;stroke-linejoin:round;stroke-miterlimit:2;">
    <g transform="matrix(1.47471,0,0,1.71055,-206.493,-234.079)">
        <ellipse cx="401.081" cy="168.998" rx="33.905" ry="29.23" style="fill:rgb(36,123,160);"/>
    </g>
    <g transform="matrix(1.47471,0,0,1.71055,-316.471,-234.079)">
        <ellipse cx="401.081" cy="168.998" rx="33.905" ry="29.23" style="fill:rgb(112,193,179);"/>
    </g>
    <g transform="matrix(1.47471,0,0,1.71055,-206.478,95.9211)">
        <ellipse cx="401.081" cy="168.998" rx="33.905" ry="29.23" style="fill:rgb(112,193,179);"/>
    </g>
    <g transform="matrix(1.47471,0,0,1.71055,-316.471,205.921)">
        <ellipse cx="401.081" cy="168.998" rx="33.905" ry="29.23" style="fill:rgb(112,193,179);"/>
    </g>
    <g transform="matrix(1.47471,0,0,1.71055,-426.478,205.921)">
        <ellipse cx="401.081" cy="168.998" rx="33.905" ry="29.23" style="fill:rgb(112,193,179);"/>
    </g>
    <g transform="matrix(1.47471,0,0,1.71055,-96.4853,-14.0789)">
        <ellipse cx="401.081" cy="168.998" rx="33.905" ry="29.23" style="fill:rgb(36,123,160);"/>
    </g>
    <g transform="matrix(1.47471,0,0,1.71055,-96.4853,95.9211)">
        <ellipse cx="401.081" cy="168.998" rx="33.905" ry="29.23" style="fill:rgb(36,123,160);"/>
    </g>
    <g transform="matrix(1.47471,0,0,1.71055,-206.471,205.921)">
        <ellipse cx="401.081" cy="168.998" rx="33.905" ry="29.23" style="fill:rgb(36,123,160);"/>
    </g>
    <g transform="matrix(1.47471,0,0,1.71055,-536.478,-14.0789)">
        <ellipse cx="401.081" cy="168.998" rx="33.905" ry="29.23" style="fill:rgb(36,123,160);"/>
    </g>
    <g transform="matrix(1.47471,0,0,1.71055,-536.478,95.9211)">
        <ellipse cx="401.081" cy="168.998" rx="33.905" ry="29.23" style="fill:rgb(36,123,160);"/>
    </g>
    <g transform="matrix(1.43144,0,0,1.59558,-140.227,-83.5647)">
        <ellipse cx="290.077" cy="293.664" rx="34.93" ry="31.336" style="fill:rgb(242,95,92);"/>
    </g>
    <g transform="matrix(1.43144,0,0,1.59558,-140.227,-303.565)">
        <ellipse cx="290.077" cy="293.664" rx="34.93" ry="31.336" style="fill:rgb(255,180,6);"/>
    </g>
    <g transform="matrix(1.43144,0,0,1.59558,-250.22,-83.6039)">
        <ellipse cx="290.077" cy="293.664" rx="34.93" ry="31.336" style="fill:rgb(255,180,6);"/>
    </g>
    <g transform="matrix(1.43144,0,0,1.59558,-250.22,-303.565)">
        <ellipse cx="290.077" cy="293.664" rx="34.93" ry="31.336" style="fill:rgb(242,95,92);"/>
    </g>
    <g transform="matrix(1.43144,0,0,1.59558,-360.227,-303.565)">
        <ellipse cx="290.077" cy="293.664" rx="34.93" ry="31.336" style="fill:rgb(255,180,6);"/>
    </g>
    <g transform="matrix(1.43144,0,0,1.59558,-250.22,-413.565)">
        <ellipse cx="290.077" cy="293.664" rx="34.93" ry="31.336" style="fill:rgb(255,180,6);"/>
    </g>
    <g transform="matrix(1.43144,0,0,1.59558,-250.22,-193.565)">
        <ellipse cx="290.077" cy="293.664" rx="34.93" ry="31.336" style="fill:rgb(255,180,6);"/>
    </g>
</svg>
